<svg width="1728" height="1117" viewBox="0 0 1728 1117" fill="none" xmlns="http://www.w3.org/2000/svg">
<path opacity="0.0144928" d="M1731.23 1562.65C1740.29 1567.45 1751.43 1565.69 1758.55 1558.32L1984.89 1324.24C1989.1 1319.88 1991.42 1314.04 1991.35 1307.97L1985.73 841.909C1985.67 837.142 1984.14 832.511 1981.33 828.656L1741.19 498.549C1736.1 491.559 1727.53 488.011 1718.99 489.363L1438.54 533.782C1430 535.134 1422.94 541.159 1420.27 549.378L1293.88 937.537C1292.41 942.07 1292.37 946.95 1293.79 951.501L1432.47 1396.49C1434.28 1402.28 1438.29 1407.12 1443.65 1409.96L1731.23 1562.65Z" stroke="url(#paint0_linear_1_146)" stroke-width="4"/>
<path opacity="0.0289855" d="M1680.08 1561.16C1688.86 1566.4 1700.04 1565.23 1707.53 1558.27L1944.45 1338.33C1948.9 1334.2 1951.53 1328.47 1951.78 1322.41L1970.61 860.976C1970.8 856.198 1969.5 851.479 1966.89 847.473L1745.81 508.496C1741.09 501.265 1732.73 497.284 1724.14 498.187L1443.43 527.691C1434.84 528.593 1427.49 534.227 1424.38 542.28L1278.6 919.815C1276.88 924.276 1276.59 929.163 1277.78 933.795L1392.13 1381.23C1393.63 1387.11 1397.4 1392.16 1402.61 1395.28L1680.08 1561.16Z" stroke="url(#paint1_linear_1_146)" stroke-width="4"/>
<path opacity="0.0434783" d="M1629.32 1558.12C1637.8 1563.79 1648.99 1563.2 1656.83 1556.68L1903.47 1351.33C1908.14 1347.44 1911.09 1341.85 1911.65 1335.8L1954.43 880.271C1954.88 875.496 1953.82 870.7 1951.41 866.555L1749.66 519.788C1745.32 512.336 1737.19 507.935 1728.58 508.386L1448.39 523.07C1439.78 523.521 1432.15 528.749 1428.61 536.613L1264.22 902.569C1262.25 906.944 1261.7 911.824 1262.65 916.526L1352.8 1365.09C1354 1371.05 1357.51 1376.29 1362.56 1379.67L1629.32 1558.12Z" stroke="url(#paint2_linear_1_146)" stroke-width="4"/>
<path opacity="0.057971" d="M1579.04 1553.56C1587.19 1559.64 1598.37 1559.64 1606.52 1553.56L1862.02 1363.22C1866.91 1359.58 1870.15 1354.16 1871.03 1348.13L1937.19 899.737C1937.89 894.977 1937.09 890.117 1934.88 885.841L1752.67 532.37C1748.72 524.717 1740.83 519.909 1732.22 519.909H1453.34C1444.73 519.909 1436.84 524.717 1432.9 532.37L1250.68 885.841C1248.48 890.117 1247.67 894.977 1248.37 899.737L1314.53 1348.13C1315.42 1354.16 1318.66 1359.58 1323.54 1363.22L1579.04 1553.56Z" stroke="url(#paint3_linear_1_146)" stroke-width="4"/>
<path opacity="0.0724638" d="M1529.31 1547.54C1537.13 1554 1548.25 1554.58 1556.7 1548.97L1820.16 1373.99C1825.24 1370.62 1828.77 1365.36 1829.98 1359.39L1918.89 919.313C1919.85 914.582 1919.29 909.671 1917.3 905.274L1754.77 546.184C1751.22 538.351 1743.6 533.149 1735.02 532.7L1458.2 518.192C1449.62 517.742 1441.5 522.119 1437.15 529.538L1237.97 869.672C1235.54 873.837 1234.47 878.663 1234.92 883.468L1277.35 1330.42C1277.92 1336.49 1280.89 1342.09 1285.58 1345.97L1529.31 1547.54Z" stroke="url(#paint4_linear_1_146)" stroke-width="4"/>
<path opacity="0.0869565" d="M1480.22 1540.08C1487.67 1546.91 1498.71 1548.07 1507.43 1542.94L1777.95 1383.63C1783.22 1380.53 1787.03 1375.47 1788.55 1369.55L1899.53 938.942C1900.73 934.253 1900.43 929.303 1898.66 924.796L1755.9 561.169C1752.76 553.177 1745.43 547.597 1736.89 546.7L1462.9 517.902C1454.36 517.004 1446.03 520.938 1441.3 528.103L1226.05 854.102C1223.39 858.143 1222.06 862.922 1222.27 867.759L1241.29 1312.03C1241.55 1318.13 1244.22 1323.88 1248.73 1328.01L1480.22 1540.08Z" stroke="url(#paint5_linear_1_146)" stroke-width="4"/>
<path opacity="0.101449" d="M1431.83 1531.24C1438.91 1538.42 1449.83 1540.15 1458.78 1535.51L1735.46 1392.13C1740.89 1389.32 1744.98 1384.45 1746.81 1378.62L1879.1 958.564C1880.56 953.931 1880.52 948.956 1878.97 944.35L1756.01 577.26C1753.29 569.13 1746.27 563.19 1737.8 561.849L1467.35 519.013C1458.88 517.672 1450.37 521.152 1445.26 528.043L1214.88 839.168C1211.99 843.071 1210.41 847.79 1210.37 852.647L1206.38 1293.02C1206.32 1299.14 1208.71 1305.03 1213 1309.38L1431.83 1531.24Z" stroke="url(#paint6_linear_1_146)" stroke-width="4"/>
<path opacity="0.115942" d="M1384.21 1521.08C1390.89 1528.59 1401.68 1530.88 1410.84 1526.74L1692.74 1399.49C1698.33 1396.96 1702.67 1392.32 1704.82 1386.58L1857.63 978.123C1859.34 973.559 1859.55 968.57 1858.24 963.877L1755.04 594.391C1752.74 586.145 1746.05 579.861 1737.67 578.081L1471.48 521.5C1463.11 519.72 1454.44 522.739 1448.98 529.335L1204.42 824.903C1201.32 828.658 1199.48 833.302 1199.18 838.166L1172.65 1273.46C1172.28 1279.58 1174.36 1285.59 1178.44 1290.17L1384.21 1521.08Z" stroke="url(#paint7_linear_1_146)" stroke-width="4"/>
<path opacity="0.130435" d="M1337.42 1509.65C1343.7 1517.46 1354.32 1520.3 1363.66 1516.68L1649.87 1405.7C1655.59 1403.48 1660.19 1399.06 1662.64 1393.44L1835.12 997.562C1837.07 993.079 1837.55 988.091 1836.47 983.321L1752.96 612.492C1751.08 604.152 1744.73 597.542 1736.47 595.329L1475.23 525.33C1466.97 523.118 1458.17 525.668 1452.37 531.951L1194.63 811.341C1191.32 814.935 1189.23 819.492 1188.68 824.35L1140.12 1253.43C1139.43 1259.53 1141.2 1265.65 1145.05 1270.43L1337.42 1509.65Z" stroke="url(#paint8_linear_1_146)" stroke-width="4"/>
<path opacity="0.144928" d="M1291.54 1497C1297.4 1505.09 1307.81 1508.47 1317.31 1505.37L1606.89 1410.76C1612.74 1408.85 1617.57 1404.69 1620.32 1399.19L1811.58 1016.82C1813.78 1012.44 1814.51 1007.46 1813.68 1002.63L1749.7 631.493C1748.25 623.081 1742.26 616.164 1734.14 613.526L1478.52 530.471C1470.41 527.833 1461.49 529.908 1455.38 535.862L1185.47 798.511C1181.96 801.933 1179.63 806.389 1178.82 811.228L1108.81 1232.99C1107.8 1239.05 1109.26 1245.27 1112.87 1250.24L1291.54 1497Z" stroke="url(#paint9_linear_1_146)" stroke-width="4"/>
<path opacity="0.15942" d="M1246.61 1483.2C1252.04 1491.55 1262.22 1495.46 1271.84 1492.88L1563.89 1414.69C1569.83 1413.1 1574.89 1409.19 1577.93 1403.84L1787.03 1035.86C1789.47 1031.58 1790.46 1026.63 1789.87 1021.74L1745.24 651.32C1744.22 642.858 1738.6 635.654 1730.65 632.599L1481.3 536.882C1473.34 533.828 1464.34 535.424 1457.92 541.03L1176.9 786.441C1173.19 789.679 1170.62 794.021 1169.56 798.829L1078.72 1212.21C1077.4 1218.22 1078.54 1224.51 1081.9 1229.68L1246.61 1483.2Z" stroke="url(#paint10_linear_1_146)" stroke-width="4"/>
<path opacity="0.173913" d="M1202.69 1468.31C1207.68 1476.9 1217.61 1481.32 1227.32 1479.27L1520.9 1417.5C1526.94 1416.23 1532.21 1412.59 1535.53 1407.4L1761.5 1054.6C1764.16 1050.44 1765.42 1045.54 1765.07 1040.61L1739.53 671.898C1738.95 663.408 1733.72 655.937 1725.94 652.475L1483.48 544.524C1475.71 541.062 1466.66 542.177 1459.95 547.42L1168.86 775.156C1164.97 778.199 1162.16 782.415 1160.85 787.178L1049.87 1191.17C1048.24 1197.11 1049.06 1203.47 1052.16 1208.8L1202.69 1468.31Z" stroke="url(#paint11_linear_1_146)" stroke-width="4"/>
<path opacity="0.188406" d="M1159.84 1452.4C1164.36 1461.2 1174.02 1466.12 1183.8 1464.61L1478 1419.19C1484.11 1418.25 1489.58 1414.89 1493.18 1409.87L1734.99 1073.01C1737.88 1068.99 1739.4 1064.13 1739.3 1059.18L1732.56 693.15C1732.4 684.655 1727.57 676.938 1720 673.081L1485.02 553.35C1477.45 549.493 1468.37 550.123 1461.4 554.99L1161.32 764.677C1157.25 767.516 1154.22 771.592 1152.66 776.298L1022.27 1169.93C1020.33 1175.79 1020.83 1182.19 1023.65 1187.68L1159.84 1452.4Z" stroke="url(#paint12_linear_1_146)" stroke-width="4"/>
<path opacity="0.202899" d="M1118.09 1435.54C1122.15 1444.52 1131.5 1449.92 1141.32 1448.95L1435.25 1419.78C1441.4 1419.17 1447.05 1416.1 1450.92 1411.27L1707.55 1091.03C1710.66 1087.15 1712.43 1082.37 1712.59 1077.39L1724.29 715C1724.56 706.522 1720.14 698.581 1712.8 694.34L1485.86 563.315C1478.51 559.073 1469.42 559.22 1462.22 563.696L1154.23 755.025C1150 757.65 1146.74 761.574 1144.93 766.209L995.911 1148.57C993.664 1154.34 993.835 1160.76 996.384 1166.4L1118.09 1435.54Z" stroke="url(#paint13_linear_1_146)" stroke-width="4"/>
<path opacity="0.217391" d="M1077.49 1417.79C1081.08 1426.95 1090.1 1432.8 1099.92 1432.36L1392.69 1419.29C1398.88 1419.01 1404.7 1416.25 1408.82 1411.62L1679.19 1108.62C1682.51 1104.9 1684.53 1100.19 1684.95 1095.21L1714.69 737.37C1715.39 728.93 1711.4 720.788 1704.3 716.175L1485.93 574.367C1478.83 569.754 1469.77 569.418 1462.34 573.492L1147.54 746.216C1143.16 748.618 1139.68 752.379 1137.63 756.931L970.791 1127.16C968.245 1132.81 968.087 1139.25 970.353 1145.02L1077.49 1417.79Z" stroke="url(#paint14_linear_1_146)" stroke-width="4"/>
<path opacity="0.231884" d="M1038.07 1399.24C1041.19 1408.53 1049.85 1414.83 1059.65 1414.92L1350.39 1417.73C1356.59 1417.79 1362.56 1415.34 1366.94 1410.94L1649.94 1125.72C1653.47 1122.17 1655.74 1117.55 1656.41 1112.59L1703.77 760.181C1704.89 751.801 1701.33 743.48 1694.49 738.51L1485.2 586.453C1478.36 581.483 1469.35 580.667 1461.72 584.327L1141.2 738.266C1136.68 740.435 1133 744.021 1130.7 748.477L946.905 1105.77C944.065 1111.29 943.578 1117.72 945.553 1123.61L1038.07 1399.24Z" stroke="url(#paint15_linear_1_146)" stroke-width="4"/>
<path opacity="0.246377" d="M999.872 1379.96C1002.51 1389.36 1010.8 1396.07 1020.55 1396.7L1308.39 1415.15C1314.6 1415.55 1320.7 1413.41 1325.31 1409.24L1619.84 1142.3C1623.57 1138.92 1626.09 1134.42 1627.01 1129.47L1691.49 783.353C1693.04 775.055 1689.91 766.577 1683.35 761.266L1483.61 599.519C1477.05 594.207 1468.11 592.915 1460.32 596.152L1135.17 731.185C1130.52 733.115 1126.64 736.514 1124.11 740.862L924.241 1084.46C921.114 1089.83 920.297 1096.25 921.977 1102.24L999.872 1379.96Z" stroke="url(#paint16_linear_1_146)" stroke-width="4"/>
<path opacity="0.26087" d="M962.919 1360.01C965.072 1369.5 972.967 1376.61 982.632 1377.76L1266.76 1411.55C1272.94 1412.29 1279.16 1410.49 1284 1406.55L1588.93 1158.3C1592.85 1155.12 1595.6 1150.73 1596.78 1145.82L1677.86 806.807C1679.82 798.613 1677.14 790.003 1670.88 784.365L1481.12 613.507C1474.86 607.869 1466.02 606.106 1458.07 608.912L1129.4 724.984C1124.63 726.666 1120.56 729.867 1117.8 734.095L902.784 1063.31C899.377 1068.52 898.232 1074.9 899.611 1080.97L962.919 1360.01Z" stroke="url(#paint17_linear_1_146)" stroke-width="4"/>
<path opacity="0.275362" d="M927.235 1339.48C928.902 1349.04 936.384 1356.52 945.938 1358.19L1225.53 1406.98C1231.68 1408.05 1238 1406.58 1243.04 1402.9L1557.24 1173.7C1561.33 1170.71 1564.32 1166.45 1565.75 1161.59L1662.87 830.466C1665.24 822.395 1663.01 813.676 1657.06 807.729L1477.69 628.358C1471.74 622.41 1463.02 620.184 1454.95 622.551L1123.83 719.669C1118.97 721.095 1114.71 724.089 1111.72 728.184L882.515 1042.38C878.837 1047.42 877.366 1053.74 878.439 1059.89L927.235 1339.48Z" stroke="url(#paint18_linear_1_146)" stroke-width="4"/>
<path opacity="0.289855" d="M892.839 1318.45C894.02 1328.04 901.07 1335.87 910.486 1338.05L1184.77 1401.46C1190.86 1402.87 1197.26 1401.74 1202.5 1398.33L1524.8 1188.44C1529.07 1185.66 1532.29 1181.55 1533.97 1176.74L1646.52 854.25C1649.29 846.324 1647.52 837.52 1641.9 831.281L1473.28 644.011C1467.66 637.772 1459.09 635.089 1450.92 637.012L1118.43 715.243C1113.47 716.408 1109.05 719.184 1105.84 723.134L863.413 1021.73C859.472 1026.59 857.677 1032.83 858.441 1039.04L892.839 1318.45Z" stroke="url(#paint19_linear_1_146)" stroke-width="4"/>
<path opacity="0.304348" d="M859.746 1296.98C860.441 1306.59 867.044 1314.74 876.293 1317.42L1144.5 1395.03C1150.52 1396.77 1156.99 1395.98 1162.41 1392.85L1491.67 1202.49C1496.09 1199.94 1499.54 1195.98 1501.46 1191.25L1628.83 878.082C1631.98 870.32 1630.67 861.455 1625.4 854.943L1467.86 660.403C1462.59 653.891 1454.19 650.762 1445.94 652.237L1113.14 711.708C1108.11 712.607 1103.52 715.154 1100.1 718.949L845.451 1001.44C841.258 1006.09 839.143 1012.25 839.595 1018.5L859.746 1296.98Z" stroke="url(#paint20_linear_1_146)" stroke-width="4"/>
<path opacity="0.318841" d="M827.966 1275.17C828.177 1284.76 834.318 1293.21 843.374 1296.37L1104.79 1387.72C1110.71 1389.79 1117.22 1389.35 1122.81 1386.5L1457.88 1215.83C1462.45 1213.5 1466.11 1209.71 1468.28 1205.06L1609.79 901.886C1613.33 894.307 1612.47 885.405 1607.56 878.639L1461.4 677.473C1456.48 670.706 1448.28 667.142 1439.98 668.164L1107.91 709.062C1102.82 709.689 1098.09 712 1094.46 715.628L828.601 981.551C824.164 985.989 821.734 992.046 821.872 998.319L827.966 1275.17Z" stroke="url(#paint21_linear_1_146)" stroke-width="4"/>
<path opacity="0.333333" d="M797.505 1253.07C797.235 1262.63 802.901 1271.35 811.736 1274.99L1065.66 1379.57C1071.47 1381.97 1078.01 1381.88 1083.76 1379.33L1423.47 1228.42C1428.18 1226.32 1432.05 1222.71 1434.46 1218.16L1589.43 925.585C1593.34 918.208 1592.94 909.294 1588.39 902.293L1453.87 695.154C1449.33 688.153 1441.35 684.165 1433.02 684.734L1102.71 707.302C1097.57 707.653 1092.69 709.719 1088.87 713.169L812.829 962.136C808.161 966.346 805.42 972.284 805.243 978.567L797.505 1253.07Z" stroke="url(#paint22_linear_1_146)" stroke-width="4"/>
<path opacity="0.347826" d="M768.363 1230.78C767.618 1240.27 772.795 1249.24 781.386 1253.34L1027.16 1370.63C1032.84 1373.34 1039.39 1373.6 1045.27 1371.36L1388.5 1240.22C1393.33 1238.37 1397.4 1234.95 1400.05 1230.51L1567.76 949.107C1572.02 941.95 1572.09 933.047 1567.92 925.832L1445.26 713.381C1441.1 706.166 1433.36 701.768 1425.02 701.883L1097.47 706.421C1092.3 706.492 1087.3 708.305 1083.28 711.567L798.101 943.248C793.213 947.219 790.167 953.021 789.674 959.299L768.363 1230.78Z" stroke="url(#paint23_linear_1_146)" stroke-width="4"/>
<path opacity="0.362319" d="M740.537 1208.37C739.322 1217.78 744.002 1226.96 752.323 1231.5L989.312 1360.93C994.85 1363.95 1001.39 1364.57 1007.39 1362.63L1353.01 1251.22C1357.96 1249.63 1362.21 1246.41 1365.1 1242.08L1544.81 972.378C1549.42 965.459 1549.93 956.591 1546.16 949.183L1435.54 732.089C1431.77 724.681 1424.29 719.887 1415.98 719.55L1092.16 706.41C1086.97 706.199 1081.86 707.752 1077.66 710.815L784.378 924.941C779.282 928.662 775.938 934.312 775.129 940.57L740.537 1208.37Z" stroke="url(#paint24_linear_1_146)" stroke-width="4"/>
<path opacity="0.376812" d="M714.019 1185.91C712.342 1195.2 716.515 1204.58 724.544 1209.55L952.164 1350.51C957.538 1353.84 964.046 1354.81 970.158 1353.2L1317.05 1261.39C1322.09 1260.06 1326.53 1257.05 1329.64 1252.86L1520.6 995.33C1525.54 988.665 1526.51 979.855 1523.13 972.276L1424.71 751.211C1421.33 743.632 1414.14 738.457 1405.88 737.67L1086.72 707.258C1081.53 706.764 1076.32 708.049 1071.95 710.904L771.617 907.267C766.326 910.727 762.692 916.212 761.569 922.433L714.019 1185.91Z" stroke="url(#paint25_linear_1_146)" stroke-width="4"/>
<path opacity="0.391304" d="M688.798 1163.48C686.667 1172.64 690.327 1182.17 698.04 1187.55L915.74 1339.43C920.935 1343.06 927.394 1344.38 933.595 1343.09L1280.66 1270.72C1285.79 1269.65 1290.4 1266.86 1293.73 1262.81L1495.16 1017.89C1500.42 1011.5 1501.84 1002.77 1498.87 995.041L1412.75 770.682C1409.78 762.953 1402.89 757.414 1394.7 756.181L1081.12 708.952C1075.94 708.172 1070.65 709.184 1066.12 711.822L759.777 890.276C754.304 893.464 750.388 898.768 748.952 904.937L688.798 1163.48Z" stroke="url(#paint26_linear_1_146)" stroke-width="4"/>
<path opacity="0.405797" d="M664.859 1141.14C662.283 1150.15 665.424 1159.81 672.8 1165.58L880.069 1327.73C885.067 1331.64 891.459 1333.31 897.732 1332.35L1243.9 1279.18C1249.1 1278.38 1253.88 1275.82 1257.42 1271.93L1468.53 1040C1474.09 1033.89 1475.95 1025.27 1473.4 1017.41L1399.65 790.435C1397.1 782.578 1390.53 776.693 1382.43 775.019L1075.32 711.476C1070.16 710.409 1064.8 711.143 1060.12 713.555L748.809 874.013C743.168 876.921 738.979 882.03 737.234 888.132L664.859 1141.14Z" stroke="url(#paint27_linear_1_146)" stroke-width="4"/>
<path opacity="0.42029" d="M642.18 1118.98C639.171 1127.8 641.789 1137.57 648.808 1143.71L845.174 1315.46C849.96 1319.64 856.266 1321.66 862.594 1321.03L1206.82 1286.76C1212.08 1286.24 1217 1283.92 1220.75 1280.19L1440.75 1061.59C1446.6 1055.78 1448.89 1047.29 1446.76 1039.33L1385.42 810.404C1383.28 802.442 1377.05 796.23 1369.08 794.122L1069.26 714.811C1064.15 713.459 1058.73 713.909 1053.91 716.086L738.666 858.522C732.871 861.141 728.419 866.041 726.366 872.06L642.18 1118.98Z" stroke="url(#paint28_linear_1_146)" stroke-width="4"/>
<path opacity="0.434783" d="M620.739 1097.05C617.308 1105.68 619.4 1115.52 626.044 1122.01L811.078 1302.65C815.637 1307.1 821.839 1309.46 828.203 1309.17L1169.46 1293.45C1174.77 1293.21 1179.83 1291.13 1183.78 1287.58L1411.86 1082.61C1417.97 1077.11 1420.69 1068.76 1418.98 1060.72L1370.05 830.525C1368.34 822.48 1362.46 815.96 1354.64 813.426L1062.91 718.937C1057.86 717.301 1052.39 717.464 1047.45 719.399L729.295 843.844C723.362 846.165 718.656 850.843 716.302 856.764L620.739 1097.05Z" stroke="url(#paint29_linear_1_146)" stroke-width="4"/>
<path opacity="0.449275" d="M600.507 1075.43C596.667 1083.84 598.233 1093.73 604.484 1100.54L777.8 1289.37C782.117 1294.07 788.195 1296.77 794.579 1296.82L1131.89 1299.24C1137.23 1299.28 1142.41 1297.46 1146.55 1294.1L1381.89 1102.99C1388.26 1097.81 1391.39 1089.64 1390.11 1081.53L1353.55 850.732C1352.27 842.628 1346.77 835.821 1339.11 832.869L1056.23 723.833C1051.25 721.914 1045.76 721.786 1040.69 723.472L720.645 830.015C714.588 832.031 709.641 836.475 706.989 842.282L600.507 1075.43Z" stroke="url(#paint30_linear_1_146)" stroke-width="4"/>
<path opacity="0.463768" d="M581.454 1054.18C577.219 1062.35 578.26 1072.26 584.101 1079.37L745.357 1275.66C749.418 1280.6 755.354 1283.63 761.739 1284.02L1094.14 1304.13C1099.5 1304.46 1104.79 1302.9 1109.12 1299.73L1350.91 1122.67C1357.51 1117.84 1361.05 1109.85 1360.19 1101.71L1335.94 870.963C1335.08 862.822 1329.96 855.749 1322.5 852.391L1049.18 729.474C1044.29 727.275 1038.79 726.853 1033.62 728.283L712.661 817.068C706.495 818.774 701.319 822.97 698.374 828.65L581.454 1054.18Z" stroke="url(#paint31_linear_1_146)" stroke-width="4"/>
<path opacity="0.478261" d="M563.545 1033.36C558.93 1041.27 559.448 1051.17 564.865 1058.56L713.76 1261.57C717.552 1266.74 723.328 1270.09 729.697 1270.82L1056.28 1308.11C1061.63 1308.72 1067.03 1307.43 1071.53 1304.47L1318.95 1141.62C1325.77 1137.13 1329.7 1129.36 1329.27 1121.21L1317.22 891.155C1316.79 883 1312.07 875.683 1304.81 871.93L1041.73 735.834C1036.95 733.358 1031.44 732.641 1026.18 733.809L705.287 805.035C699.028 806.424 693.634 810.362 690.404 815.899L563.545 1033.36Z" stroke="url(#paint32_linear_1_146)" stroke-width="4"/>
<path opacity="0.492754" d="M546.742 1013.04C541.763 1020.68 541.763 1030.53 546.742 1038.17L683.022 1247.15C686.531 1252.53 692.13 1256.2 698.465 1257.27L1018.35 1311.18C1023.69 1312.08 1029.18 1311.07 1033.84 1308.32L1286.07 1159.78C1293.09 1155.64 1297.4 1148.11 1297.4 1139.96V911.247C1297.4 903.101 1293.09 895.563 1286.07 891.429L1033.84 742.886C1029.18 740.138 1023.69 739.125 1018.35 740.025L698.465 793.942C692.13 795.01 686.531 798.678 683.022 804.059L546.742 1013.04Z" stroke="url(#paint33_linear_1_146)" stroke-width="4"/>
<path opacity="0.507246" d="M531.004 993.267C525.677 1000.61 525.164 1010.4 529.694 1018.26L653.149 1232.45C656.363 1238.03 661.768 1242 668.05 1243.41L980.401 1313.35C985.713 1314.54 991.274 1313.81 996.096 1311.28L1252.33 1177.1C1259.53 1173.33 1264.2 1166.04 1264.63 1157.93L1276.51 931.181C1276.94 923.066 1273.05 915.33 1266.29 910.829L1025.48 750.6C1020.95 747.585 1015.49 746.274 1010.09 746.902L692.136 783.813C685.742 784.555 679.951 787.943 676.171 793.154L531.004 993.267Z" stroke="url(#paint34_linear_1_146)" stroke-width="4"/>
<path opacity="0.521739" d="M516.288 974.097C510.631 981.132 509.612 990.825 513.683 998.882L624.146 1217.52C627.055 1223.28 632.248 1227.55 638.459 1229.29L942.487 1314.62C947.755 1316.1 953.378 1315.65 958.345 1313.36L1217.78 1193.55C1225.14 1190.15 1230.17 1183.13 1231.01 1175.07L1254.58 950.898C1255.42 942.838 1251.97 934.927 1245.48 930.074L1016.62 758.946C1012.23 755.669 1006.83 754.062 1001.37 754.413L686.242 774.666C679.805 775.08 673.837 778.179 669.794 783.206L516.288 974.097Z" stroke="url(#paint35_linear_1_146)" stroke-width="4"/>
<path opacity="0.536232" d="M502.547 955.583C496.578 962.294 495.062 971.866 498.665 980.093L596.015 1202.41C598.608 1208.33 603.574 1212.89 609.696 1214.96L904.657 1315C909.866 1316.77 915.536 1316.61 920.638 1314.55L1182.49 1209.09C1189.98 1206.07 1195.34 1199.33 1196.61 1191.35L1231.61 970.343C1232.88 962.359 1229.86 954.298 1223.66 949.11L1007.22 767.891C1003 764.36 997.66 762.457 992.16 762.528L680.723 766.52C674.258 766.603 668.127 769.402 663.831 774.233L502.547 955.583Z" stroke="url(#paint36_linear_1_146)" stroke-width="4"/>
<path opacity="0.550725" d="M489.732 937.771C483.47 944.146 481.467 953.57 484.595 961.94L568.755 1187.16C571.023 1193.23 575.746 1198.06 581.761 1200.47L866.96 1314.5C872.094 1316.55 877.796 1316.69 883.022 1314.88L1146.5 1223.68C1154.12 1221.04 1159.8 1214.61 1161.47 1206.72L1207.65 989.462C1209.33 981.577 1206.76 973.391 1200.87 967.884L997.266 777.402C993.228 773.624 987.964 771.427 982.438 771.214L675.516 759.386C669.042 759.136 662.763 761.629 658.223 766.251L489.732 937.771Z" stroke="url(#paint37_linear_1_146)" stroke-width="4"/>
<path opacity="0.565217" d="M477.792 920.707C471.256 926.731 468.778 935.983 471.425 944.468L542.363 1171.84C544.297 1178.03 548.761 1183.13 554.653 1185.86L829.442 1313.13C834.487 1315.47 840.208 1315.9 845.545 1314.35L1109.89 1237.29C1117.61 1235.04 1123.59 1228.93 1125.67 1221.16L1182.73 1008.2C1184.81 1000.44 1182.69 992.153 1177.13 986.346L986.728 787.444C982.884 783.427 977.714 780.94 972.177 780.441L670.563 753.273C664.096 752.691 657.684 754.869 652.91 759.27L477.792 920.707Z" stroke="url(#paint38_linear_1_146)" stroke-width="4"/>
<path opacity="0.57971" d="M466.673 904.431C459.884 910.094 456.943 919.148 459.106 927.72L516.833 1156.47C518.425 1162.78 522.616 1168.12 528.366 1171.17L792.151 1310.92C797.092 1313.54 802.816 1314.27 808.254 1312.97L1072.71 1249.9C1080.51 1248.04 1086.78 1242.26 1089.25 1234.64L1156.87 1026.52C1159.35 1018.9 1157.68 1010.53 1152.47 1004.45L975.584 797.981C971.947 793.735 966.888 790.96 961.353 790.173L665.801 748.188C659.358 747.272 652.829 749.129 647.832 753.298L466.673 904.431Z" stroke="url(#paint39_linear_1_146)" stroke-width="4"/>
<path opacity="0.594203" d="M456.32 888.981C449.298 894.273 445.908 903.104 447.585 911.735L492.155 1141.12C493.399 1147.52 497.303 1153.09 502.895 1156.45L755.133 1307.88C759.953 1310.77 765.667 1311.8 771.194 1310.77L1035.04 1261.49C1042.89 1260.03 1049.43 1254.59 1052.29 1247.13L1130.12 1044.36C1132.99 1036.9 1131.77 1028.49 1126.92 1022.14L963.814 808.977C960.397 804.512 955.463 801.453 949.944 800.378L661.17 744.131C654.768 742.884 648.138 744.413 642.93 748.339L456.32 888.981Z" stroke="url(#paint40_linear_1_146)" stroke-width="4"/>
<path opacity="0.608696" d="M446.676 874.39C439.443 879.301 435.619 887.889 436.81 896.55L468.319 1125.82C469.209 1132.3 472.813 1138.09 478.23 1141.75L718.431 1304.03C723.117 1307.2 728.805 1308.52 734.408 1307.76L996.931 1272.04C1004.83 1270.97 1011.6 1265.88 1014.84 1258.6L1102.51 1061.69C1105.75 1054.41 1105 1045.98 1100.51 1039.39L951.397 820.395C948.215 815.721 943.421 812.383 937.933 811.019L656.609 741.101C650.265 739.525 643.55 740.722 638.142 744.394L446.676 874.39Z" stroke="url(#paint41_linear_1_146)" stroke-width="4"/>
<path opacity="0.623188" d="M437.683 860.69C430.259 865.212 426.02 873.533 426.725 882.198L445.311 1110.63C445.842 1117.16 449.134 1123.15 454.358 1127.1L682.088 1299.4C686.624 1302.83 692.272 1304.46 697.939 1303.97L958.453 1281.53C966.366 1280.85 973.367 1276.13 976.973 1269.06L1074.09 1078.46C1077.69 1071.38 1077.39 1062.95 1073.29 1056.15L938.319 832.196C935.383 827.324 930.745 823.713 925.302 822.061L652.059 739.094C645.789 737.191 639.006 738.051 633.411 741.46L437.683 860.69Z" stroke="url(#paint42_linear_1_146)" stroke-width="4"/>
<path opacity="0.637681" d="M429.282 847.906C421.689 852.032 417.051 860.067 417.273 868.706L423.115 1095.57C423.284 1102.14 426.251 1108.32 431.268 1112.55L646.146 1294C650.518 1297.69 656.109 1299.62 661.828 1299.41L919.672 1289.96C927.584 1289.67 934.79 1285.33 938.748 1278.47L1044.89 1094.63C1048.85 1087.78 1049 1079.37 1045.3 1072.37L924.564 844.342C921.887 839.285 917.42 835.407 912.037 833.467L647.459 738.101C641.281 735.874 634.446 736.395 628.677 739.531L429.282 847.906Z" stroke="url(#paint43_linear_1_146)" stroke-width="4"/>
<path opacity="0.652174" d="M421.412 836.061C413.672 839.786 408.654 847.514 408.398 856.1L401.712 1080.71C401.516 1087.29 404.149 1093.64 408.943 1098.15L610.643 1287.88C614.837 1291.83 620.357 1294.05 626.114 1294.13L880.653 1297.31C888.543 1297.41 895.933 1293.46 900.23 1286.84L1014.96 1110.17C1019.26 1103.56 1019.86 1095.2 1016.56 1088.03L910.122 856.793C907.714 851.563 903.433 847.426 898.123 845.2L642.753 738.11C636.682 735.564 629.813 735.742 623.882 738.596L421.412 836.061Z" stroke="url(#paint44_linear_1_146)" stroke-width="4"/>
<path opacity="0.666667" d="M414.012 825.174C406.147 828.494 400.768 835.897 400.041 844.403L381.083 1066.07C380.52 1072.64 382.808 1079.14 387.365 1083.91L575.617 1281.06C579.618 1285.25 585.053 1287.77 590.835 1288.13L841.462 1303.59C849.311 1304.07 856.863 1300.51 861.485 1294.15L984.343 1125.05C988.966 1118.69 990.017 1110.41 987.131 1103.09L894.981 869.51C892.855 864.121 888.773 859.733 883.552 857.222L637.881 739.105C631.935 736.246 625.048 736.079 618.97 738.645L414.012 825.174Z" stroke="url(#paint45_linear_1_146)" stroke-width="4"/>
<path opacity="0.681159" d="M407.02 815.26C399.052 818.171 393.334 825.233 392.142 833.631L361.204 1051.69C360.275 1058.24 362.209 1064.87 366.513 1069.89L541.104 1273.57C544.898 1278 550.232 1280.82 556.027 1281.46L802.162 1308.8C809.951 1309.66 817.644 1306.5 822.575 1300.41L953.092 1139.24C958.023 1133.15 959.515 1124.97 957.049 1117.53L879.135 882.454C877.3 876.92 873.433 872.289 868.314 869.498L632.79 741.069C626.984 737.903 620.096 737.389 613.884 739.659L407.02 815.26Z" stroke="url(#paint46_linear_1_146)" stroke-width="4"/>
<path opacity="0.695652" d="M400.374 806.33C392.325 808.831 386.29 815.535 384.643 823.8L342.051 1037.62C340.756 1044.12 342.33 1050.87 346.368 1056.12L507.136 1265.44C510.711 1270.1 515.929 1273.21 521.723 1274.14L762.819 1312.94C770.528 1314.18 778.34 1311.42 783.565 1305.62L921.251 1152.7C926.476 1146.9 928.4 1138.84 926.36 1131.31L862.578 895.585C861.045 889.921 857.405 885.056 852.402 881.987L627.424 743.979C621.773 740.513 614.902 739.653 608.571 741.621L400.374 806.33Z" stroke="url(#paint47_linear_1_146)" stroke-width="4"/>
<path opacity="0.710145" d="M394.013 798.392C385.906 800.483 379.575 806.814 377.484 814.921L323.6 1023.89C321.94 1030.32 323.145 1037.16 326.904 1042.64L473.747 1256.72C477.088 1261.59 482.176 1264.99 487.956 1266.21L723.496 1316.02C731.107 1317.63 739.016 1315.28 744.517 1309.78L888.871 1165.43C894.372 1159.92 896.719 1152.02 895.11 1144.4L845.306 908.864C844.084 903.084 840.685 897.996 835.814 894.655L621.731 747.812C616.251 744.053 609.413 742.848 602.978 744.508L394.013 798.392Z" stroke="url(#paint48_linear_1_146)" stroke-width="4"/>
<path opacity="0.724638" d="M387.874 791.45C379.73 793.13 373.127 799.076 370.605 806.999L305.82 1010.52C303.8 1016.87 304.63 1023.78 308.098 1029.47L440.963 1247.44C444.059 1252.52 449.001 1256.2 454.754 1257.71L684.254 1318.05C691.75 1320.02 699.733 1318.09 705.493 1312.9L856.001 1177.38C861.76 1172.2 864.521 1164.46 863.344 1156.8L827.32 922.25C826.417 916.371 823.272 911.071 818.545 907.461L615.659 752.54C610.365 748.497 603.578 746.948 597.054 748.294L387.874 791.45Z" stroke="url(#paint49_linear_1_146)" stroke-width="4"/>
<path opacity="0.73913" d="M381.897 785.504C373.738 786.775 366.887 792.323 363.947 800.04L288.684 997.559C286.306 1003.8 286.758 1010.77 289.922 1016.65L408.814 1237.63C411.651 1242.9 416.434 1246.86 422.145 1248.67L645.156 1319.06C652.517 1321.39 660.554 1319.86 666.553 1315L822.692 1188.56C828.691 1183.71 831.853 1176.16 831.111 1168.48L808.62 935.705C808.044 929.743 805.165 924.242 800.597 920.37L609.161 758.132C604.066 753.814 597.347 751.924 590.748 752.952L381.897 785.504Z" stroke="url(#paint50_linear_1_146)" stroke-width="4"/>
<path opacity="0.753623" d="M376.021 780.549C367.868 781.415 360.793 786.556 357.45 794.042L272.16 985.028C269.431 991.141 269.5 998.14 272.349 1004.2L377.322 1227.34C379.889 1232.8 384.498 1237.03 390.154 1239.12L606.259 1319.06C613.471 1321.73 621.538 1320.62 627.758 1316.1L788.995 1198.95C795.215 1194.43 798.766 1187.1 798.457 1179.42L789.209 949.19C788.967 943.163 786.367 937.473 781.97 933.345L602.188 764.556C597.307 759.973 590.673 757.745 584.015 758.452L376.021 780.549Z" stroke="url(#paint51_linear_1_146)" stroke-width="4"/>
<path opacity="0.768116" d="M370.186 776.579C362.06 777.044 354.786 781.768 351.056 789.002L256.217 972.956C253.142 978.921 252.825 985.932 255.351 992.15L346.51 1216.61C348.796 1222.23 353.216 1226.73 358.805 1229.11L567.623 1318.07C574.667 1321.08 582.743 1320.37 589.164 1316.2L754.961 1208.53C761.383 1204.36 765.308 1197.27 765.431 1189.62L769.092 962.667C769.19 956.592 766.881 950.726 762.669 946.348L594.697 771.776C590.044 766.94 583.51 764.377 576.81 764.76L370.186 776.579Z" stroke="url(#paint52_linear_1_146)" stroke-width="4"/>
<path opacity="0.782609" d="M364.332 773.584C356.255 773.652 348.806 777.953 344.708 784.914L240.821 961.367C237.408 967.165 236.704 974.167 238.896 980.528L316.399 1205.47C318.392 1211.26 322.61 1216.01 328.118 1218.68L529.302 1316.13C536.164 1319.45 544.226 1319.16 550.829 1315.35L720.642 1217.31C727.245 1213.49 731.529 1206.66 732.081 1199.05L748.278 976.098C748.721 969.994 746.714 963.965 742.699 959.345L586.645 779.755C582.232 774.676 575.816 771.784 569.088 771.842L364.332 773.584Z" stroke="url(#paint53_linear_1_146)" stroke-width="4"/>
<path opacity="0.797101" d="M358.404 771.548C350.395 771.227 342.797 775.098 338.349 781.766L225.938 950.284C222.195 955.896 221.104 962.868 222.954 969.354L287.005 1193.98C288.695 1199.91 292.697 1204.91 298.11 1207.86L491.351 1313.26C498.014 1316.89 506.042 1317 512.805 1313.56L686.088 1225.26C692.851 1221.82 697.479 1215.26 698.455 1207.73L726.774 989.447C727.568 983.332 725.872 977.154 722.069 972.301L577.994 788.452C573.833 783.143 567.551 779.928 560.811 779.658L358.404 771.548Z" stroke="url(#paint54_linear_1_146)" stroke-width="4"/>
<path opacity="0.811594" d="M352.343 770.454C344.423 769.751 336.701 773.189 331.924 779.545L211.533 939.729C207.47 945.135 205.992 952.055 207.492 958.649L258.342 1182.17C259.72 1188.23 263.492 1193.47 268.798 1196.71L453.82 1309.48C460.271 1313.42 468.243 1313.93 475.146 1310.86L651.351 1232.41C658.253 1229.33 663.206 1223.06 664.601 1215.64L704.594 1002.68C705.741 996.57 704.367 990.258 700.787 985.18L568.705 797.827C564.808 792.3 558.676 788.768 551.94 788.17L352.343 770.454Z" stroke="url(#paint55_linear_1_146)" stroke-width="4"/>
<path opacity="0.826087" d="M346.098 770.282C338.285 769.205 330.465 772.207 325.379 778.235L197.57 929.719C193.198 934.901 191.335 941.748 192.479 948.431L230.424 1170.09C231.481 1176.26 235.009 1181.74 240.195 1185.25L416.759 1304.85C422.985 1309.07 430.88 1309.98 437.9 1307.28L616.48 1238.73C623.501 1236.04 628.76 1230.08 630.565 1222.78L681.748 1015.75C683.252 1009.67 682.21 1003.24 678.865 997.949L558.745 807.835C555.123 802.103 549.157 798.261 542.441 797.335L346.098 770.282Z" stroke="url(#paint56_linear_1_146)" stroke-width="4"/>
<path opacity="0.84058" d="M339.613 771.008C331.926 769.567 324.034 772.131 318.662 777.815L184.013 920.27C179.343 925.21 177.098 931.963 177.88 938.716L203.259 1157.78C203.986 1164.05 207.259 1169.75 212.311 1173.54L380.214 1299.4C386.202 1303.89 393.999 1305.18 401.117 1302.87L581.525 1244.25C588.642 1241.94 594.189 1236.31 596.395 1229.16L658.253 1028.64C660.115 1022.61 659.414 1016.08 656.315 1010.58L548.083 818.43C544.746 812.507 538.961 808.364 532.279 807.111L339.613 771.008Z" stroke="url(#paint57_linear_1_146)" stroke-width="4"/>
<path opacity="0.855072" d="M332.839 772.604C325.296 770.81 317.357 772.938 311.722 778.263L170.824 911.397C165.87 916.078 163.247 922.715 163.663 929.518L176.855 1145.29C177.244 1151.65 180.249 1157.56 185.155 1161.61L344.229 1293.16C349.967 1297.91 357.647 1299.58 364.839 1297.65L546.533 1248.97C553.726 1247.04 559.54 1241.75 562.137 1234.77L634.125 1041.31C636.346 1035.35 635.993 1028.73 633.153 1023.03L536.689 829.566C533.648 823.466 528.058 819.03 521.428 817.453L332.839 772.604Z" stroke="url(#paint58_linear_1_146)" stroke-width="4"/>
<path opacity="0.869565" d="M325.728 775.042C318.347 772.907 310.386 774.599 304.511 779.552L157.967 903.11C152.743 907.515 149.748 914.015 149.794 920.849L151.216 1132.67C151.26 1139.09 153.984 1145.2 158.732 1149.52L308.845 1286.18C314.322 1291.17 321.865 1293.21 329.111 1291.67L511.554 1252.89C518.799 1251.35 524.859 1246.42 527.835 1239.64L609.382 1053.73C611.962 1047.85 611.966 1041.16 609.394 1035.28L524.54 841.194C521.802 834.933 516.422 830.213 509.858 828.314L325.728 775.042Z" stroke="url(#paint59_linear_1_146)" stroke-width="4"/>
<path opacity="0.884058" d="M318.234 778.29C311.029 775.825 303.072 777.085 296.982 781.656L145.404 895.42C139.924 899.532 136.564 905.874 136.237 912.718L126.345 1119.94C126.036 1126.41 128.469 1132.71 133.046 1137.3L274.099 1278.51C279.305 1283.72 286.694 1286.13 293.97 1284.98L476.632 1256.04C483.909 1254.89 490.193 1250.32 493.533 1243.76L584.045 1065.86C586.981 1060.09 587.349 1053.35 585.056 1047.29L511.612 853.265C509.186 846.857 504.03 841.864 497.547 839.646L318.234 778.29Z" stroke="url(#paint60_linear_1_146)" stroke-width="4"/>
<path opacity="0.898551" d="M310.312 782.312C303.3 779.531 295.371 780.364 289.09 784.543L133.098 888.331C127.379 892.137 123.66 898.3 122.959 905.134L102.24 1107.18C101.574 1113.68 103.703 1120.15 108.097 1124.99L240.027 1270.19C244.954 1275.62 252.168 1278.37 259.454 1277.6L441.813 1258.43C449.099 1257.67 455.584 1253.48 459.276 1247.15L558.133 1077.69C561.425 1072.04 562.162 1065.27 560.158 1059.05L497.885 865.728C495.779 859.189 490.86 853.934 484.474 851.4L310.312 782.312Z" stroke="url(#paint61_linear_1_146)" stroke-width="4"/>
<path opacity="0.913043" d="M301.922 787.072C295.118 783.988 287.24 784.401 280.795 788.179L121.012 881.851C115.069 885.334 111.001 891.298 109.926 898.102L78.8988 1094.4C77.8694 1100.91 79.6847 1107.55 83.884 1112.64L206.66 1261.27C211.299 1266.89 218.323 1269.98 225.597 1269.6L407.139 1260.08C414.413 1259.7 421.076 1255.9 425.102 1249.83L531.669 1089.17C535.314 1083.68 536.426 1076.88 534.721 1070.51L483.345 878.532C481.564 871.877 476.895 866.372 470.621 863.528L301.922 787.072Z" stroke="url(#paint62_linear_1_146)" stroke-width="4"/>
<path opacity="0.927536" d="M293.025 792.53C286.442 789.159 278.64 789.159 272.057 792.53L109.108 875.98C102.96 879.128 98.553 884.872 97.1037 891.625L56.3155 1081.66C54.9188 1088.17 56.4095 1094.96 60.4026 1100.29L174.027 1251.81C178.371 1257.6 185.188 1261.01 192.428 1261.01H372.653C379.893 1261.01 386.711 1257.6 391.054 1251.81L504.679 1100.29C508.672 1094.96 510.163 1088.17 508.766 1081.66L467.978 891.625C466.528 884.872 462.121 879.128 455.974 875.98L293.025 792.53Z" stroke="url(#paint63_linear_1_146)" stroke-width="4"/>
<path opacity="0.942029" d="M283.585 798.646C277.237 795.003 269.533 794.599 262.838 797.559L97.349 870.718C91.0152 873.518 86.2802 879.023 84.4586 885.705L34.4821 1069.01C32.7146 1075.49 33.8705 1082.42 37.6461 1087.98L142.153 1241.84C146.196 1247.79 152.791 1251.51 159.975 1251.89L338.394 1261.24C345.579 1261.61 352.526 1258.61 357.169 1253.11L477.186 1111.02C481.522 1105.88 483.396 1099.11 482.316 1092.48L451.774 904.955C450.66 898.12 446.527 892.15 440.52 888.703L283.585 798.646Z" stroke="url(#paint64_linear_1_146)" stroke-width="4"/>
<path opacity="0.956522" d="M273.571 805.376C267.468 801.477 259.885 800.68 253.105 803.225L85.6997 866.065C79.199 868.505 74.1486 873.752 71.9577 880.341L13.3883 1056.48C11.2471 1062.92 12.0587 1069.97 15.6058 1075.76L111.06 1231.43C114.796 1237.52 121.154 1241.53 128.263 1242.28L304.4 1260.79C311.509 1261.54 318.561 1258.94 323.483 1253.76L449.217 1121.33C453.89 1116.41 456.15 1109.68 455.395 1102.93L434.726 918.469C433.953 911.569 430.104 905.387 424.253 901.648L273.571 805.376Z" stroke="url(#paint65_linear_1_146)" stroke-width="4"/>
<path opacity="0.971014" d="M262.952 812.677C257.106 808.538 249.665 807.359 242.826 809.489L74.124 862.016C67.4765 864.085 62.1243 869.055 59.568 875.531L-6.97877 1044.11C-9.49553 1050.49 -9.0375 1057.65 -5.72951 1063.66L80.765 1220.63C84.1916 1226.85 90.2984 1231.13 97.3112 1232.24L270.706 1259.71C277.719 1260.82 284.851 1258.63 290.032 1253.77L420.8 1131.21C425.801 1126.53 428.451 1119.85 428.027 1113.01L416.832 932.116C416.402 925.167 412.848 918.787 407.165 914.764L262.952 812.677Z" stroke="url(#paint66_linear_1_146)" stroke-width="4"/>
<path opacity="0.985507" d="M251.702 820.501C246.122 816.14 238.844 814.593 231.972 816.307L62.5873 858.564C55.814 860.254 50.1747 864.928 47.258 871.27L-26.6336 1031.95C-29.5271 1038.24 -29.4314 1045.51 -26.3728 1051.72L51.2846 1209.49C54.3983 1215.81 60.2416 1220.36 67.1382 1221.83L237.346 1258.01C244.243 1259.47 251.431 1257.69 256.848 1253.18L391.961 1140.64C397.283 1136.21 400.324 1129.61 400.24 1122.69L398.091 945.842C398.007 938.862 394.756 932.298 389.256 927.999L251.702 820.501Z" stroke="url(#paint67_linear_1_146)" stroke-width="4"/>
<path d="M239.797 828.803C234.492 824.237 227.396 822.336 220.519 823.637L51.0549 855.702C44.1775 857.003 38.2668 861.365 34.9962 867.553L-45.5939 1020.04C-48.8645 1026.23 -49.1392 1033.57 -46.3402 1039.98L22.6295 1198.06C25.4285 1204.48 30.9966 1209.27 37.7575 1211.08L204.351 1255.72C211.112 1257.53 218.33 1256.17 223.962 1252.01L362.732 1149.59C368.363 1145.44 371.796 1138.94 372.058 1131.95L378.506 959.597C378.768 952.602 375.831 945.869 370.525 941.303L239.797 828.803Z" stroke="url(#paint68_linear_1_146)" stroke-width="4"/>
<defs>
<linearGradient id="paint0_linear_1_146" x1="1746.91" y1="1573.24" x2="1563.03" y2="412.222" gradientUnits="userSpaceOnUse">
<stop stop-color="#FF1CF7"/>
<stop offset="1" stop-color="#00F0FF"/>
</linearGradient>
<linearGradient id="paint1_linear_1_146" x1="1695.15" y1="1572.5" x2="1573.36" y2="413.766" gradientUnits="userSpaceOnUse">
<stop stop-color="#FF1CF7"/>
<stop offset="1" stop-color="#00F0FF"/>
</linearGradient>
<linearGradient id="paint2_linear_1_146" x1="1643.74" y1="1570.17" x2="1583.31" y2="417.015" gradientUnits="userSpaceOnUse">
<stop stop-color="#FF1CF7"/>
<stop offset="1" stop-color="#00F0FF"/>
</linearGradient>
<linearGradient id="paint3_linear_1_146" x1="1592.78" y1="1566.29" x2="1592.78" y2="421.93" gradientUnits="userSpaceOnUse">
<stop stop-color="#FF1CF7"/>
<stop offset="1" stop-color="#00F0FF"/>
</linearGradient>
<linearGradient id="paint4_linear_1_146" x1="1542.34" y1="1560.9" x2="1601.69" y2="428.471" gradientUnits="userSpaceOnUse">
<stop stop-color="#FF1CF7"/>
<stop offset="1" stop-color="#00F0FF"/>
</linearGradient>
<linearGradient id="paint5_linear_1_146" x1="1492.51" y1="1554.05" x2="1609.95" y2="436.59" gradientUnits="userSpaceOnUse">
<stop stop-color="#FF1CF7"/>
<stop offset="1" stop-color="#00F0FF"/>
</linearGradient>
<linearGradient id="paint6_linear_1_146" x1="1443.34" y1="1545.77" x2="1617.49" y2="446.237" gradientUnits="userSpaceOnUse">
<stop stop-color="#FF1CF7"/>
<stop offset="1" stop-color="#00F0FF"/>
</linearGradient>
<linearGradient id="paint7_linear_1_146" x1="1394.93" y1="1536.12" x2="1624.23" y2="457.358" gradientUnits="userSpaceOnUse">
<stop stop-color="#FF1CF7"/>
<stop offset="1" stop-color="#00F0FF"/>
</linearGradient>
<linearGradient id="paint8_linear_1_146" x1="1347.33" y1="1525.15" x2="1630.08" y2="469.893" gradientUnits="userSpaceOnUse">
<stop stop-color="#FF1CF7"/>
<stop offset="1" stop-color="#00F0FF"/>
</linearGradient>
<linearGradient id="paint9_linear_1_146" x1="1300.61" y1="1512.93" x2="1635" y2="483.781" gradientUnits="userSpaceOnUse">
<stop stop-color="#FF1CF7"/>
<stop offset="1" stop-color="#00F0FF"/>
</linearGradient>
<linearGradient id="paint10_linear_1_146" x1="1254.82" y1="1499.51" x2="1638.9" y2="498.957" gradientUnits="userSpaceOnUse">
<stop stop-color="#FF1CF7"/>
<stop offset="1" stop-color="#00F0FF"/>
</linearGradient>
<linearGradient id="paint11_linear_1_146" x1="1210.04" y1="1484.95" x2="1641.73" y2="515.351" gradientUnits="userSpaceOnUse">
<stop stop-color="#FF1CF7"/>
<stop offset="1" stop-color="#00F0FF"/>
</linearGradient>
<linearGradient id="paint12_linear_1_146" x1="1166.3" y1="1469.33" x2="1643.44" y2="532.894" gradientUnits="userSpaceOnUse">
<stop stop-color="#FF1CF7"/>
<stop offset="1" stop-color="#00F0FF"/>
</linearGradient>
<linearGradient id="paint13_linear_1_146" x1="1123.66" y1="1452.71" x2="1643.96" y2="551.511" gradientUnits="userSpaceOnUse">
<stop stop-color="#FF1CF7"/>
<stop offset="1" stop-color="#00F0FF"/>
</linearGradient>
<linearGradient id="paint14_linear_1_146" x1="1082.16" y1="1435.16" x2="1643.27" y2="571.127" gradientUnits="userSpaceOnUse">
<stop stop-color="#FF1CF7"/>
<stop offset="1" stop-color="#00F0FF"/>
</linearGradient>
<linearGradient id="paint15_linear_1_146" x1="1041.84" y1="1416.75" x2="1641.3" y2="591.663" gradientUnits="userSpaceOnUse">
<stop stop-color="#FF1CF7"/>
<stop offset="1" stop-color="#00F0FF"/>
</linearGradient>
<linearGradient id="paint16_linear_1_146" x1="1002.73" y1="1397.56" x2="1638.02" y2="613.04" gradientUnits="userSpaceOnUse">
<stop stop-color="#FF1CF7"/>
<stop offset="1" stop-color="#00F0FF"/>
</linearGradient>
<linearGradient id="paint17_linear_1_146" x1="964.873" y1="1377.66" x2="1633.41" y2="635.177" gradientUnits="userSpaceOnUse">
<stop stop-color="#FF1CF7"/>
<stop offset="1" stop-color="#00F0FF"/>
</linearGradient>
<linearGradient id="paint18_linear_1_146" x1="928.285" y1="1357.13" x2="1627.43" y2="657.992" gradientUnits="userSpaceOnUse">
<stop stop-color="#FF1CF7"/>
<stop offset="1" stop-color="#00F0FF"/>
</linearGradient>
<linearGradient id="paint19_linear_1_146" x1="892.991" y1="1336.05" x2="1620.06" y2="681.401" gradientUnits="userSpaceOnUse">
<stop stop-color="#FF1CF7"/>
<stop offset="1" stop-color="#00F0FF"/>
</linearGradient>
<linearGradient id="paint20_linear_1_146" x1="859.009" y1="1314.5" x2="1611.28" y2="705.323" gradientUnits="userSpaceOnUse">
<stop stop-color="#FF1CF7"/>
<stop offset="1" stop-color="#00F0FF"/>
</linearGradient>
<linearGradient id="paint21_linear_1_146" x1="826.348" y1="1292.54" x2="1601.07" y2="729.672" gradientUnits="userSpaceOnUse">
<stop stop-color="#FF1CF7"/>
<stop offset="1" stop-color="#00F0FF"/>
</linearGradient>
<linearGradient id="paint22_linear_1_146" x1="795.019" y1="1270.27" x2="1589.44" y2="754.365" gradientUnits="userSpaceOnUse">
<stop stop-color="#FF1CF7"/>
<stop offset="1" stop-color="#00F0FF"/>
</linearGradient>
<linearGradient id="paint23_linear_1_146" x1="765.025" y1="1247.75" x2="1576.37" y2="779.319" gradientUnits="userSpaceOnUse">
<stop stop-color="#FF1CF7"/>
<stop offset="1" stop-color="#00F0FF"/>
</linearGradient>
<linearGradient id="paint24_linear_1_146" x1="736.363" y1="1225.07" x2="1561.87" y2="804.451" gradientUnits="userSpaceOnUse">
<stop stop-color="#FF1CF7"/>
<stop offset="1" stop-color="#00F0FF"/>
</linearGradient>
<linearGradient id="paint25_linear_1_146" x1="709.03" y1="1202.3" x2="1545.94" y2="829.679" gradientUnits="userSpaceOnUse">
<stop stop-color="#FF1CF7"/>
<stop offset="1" stop-color="#00F0FF"/>
</linearGradient>
<linearGradient id="paint26_linear_1_146" x1="683.015" y1="1179.51" x2="1528.59" y2="854.922" gradientUnits="userSpaceOnUse">
<stop stop-color="#FF1CF7"/>
<stop offset="1" stop-color="#00F0FF"/>
</linearGradient>
<linearGradient id="paint27_linear_1_146" x1="658.305" y1="1156.78" x2="1509.85" y2="880.1" gradientUnits="userSpaceOnUse">
<stop stop-color="#FF1CF7"/>
<stop offset="1" stop-color="#00F0FF"/>
</linearGradient>
<linearGradient id="paint28_linear_1_146" x1="634.881" y1="1134.19" x2="1489.71" y2="905.137" gradientUnits="userSpaceOnUse">
<stop stop-color="#FF1CF7"/>
<stop offset="1" stop-color="#00F0FF"/>
</linearGradient>
<linearGradient id="paint29_linear_1_146" x1="612.722" y1="1111.8" x2="1468.22" y2="929.955" gradientUnits="userSpaceOnUse">
<stop stop-color="#FF1CF7"/>
<stop offset="1" stop-color="#00F0FF"/>
</linearGradient>
<linearGradient id="paint30_linear_1_146" x1="591.801" y1="1089.68" x2="1445.4" y2="954.481" gradientUnits="userSpaceOnUse">
<stop stop-color="#FF1CF7"/>
<stop offset="1" stop-color="#00F0FF"/>
</linearGradient>
<linearGradient id="paint31_linear_1_146" x1="572.09" y1="1067.9" x2="1421.28" y2="978.644" gradientUnits="userSpaceOnUse">
<stop stop-color="#FF1CF7"/>
<stop offset="1" stop-color="#00F0FF"/>
</linearGradient>
<linearGradient id="paint32_linear_1_146" x1="553.556" y1="1046.52" x2="1395.89" y2="1002.37" gradientUnits="userSpaceOnUse">
<stop stop-color="#FF1CF7"/>
<stop offset="1" stop-color="#00F0FF"/>
</linearGradient>
<linearGradient id="paint33_linear_1_146" x1="536.161" y1="1025.6" x2="1369.27" y2="1025.6" gradientUnits="userSpaceOnUse">
<stop stop-color="#FF1CF7"/>
<stop offset="1" stop-color="#00F0FF"/>
</linearGradient>
<linearGradient id="paint34_linear_1_146" x1="519.867" y1="1005.21" x2="1341.48" y2="1048.27" gradientUnits="userSpaceOnUse">
<stop stop-color="#FF1CF7"/>
<stop offset="1" stop-color="#00F0FF"/>
</linearGradient>
<linearGradient id="paint35_linear_1_146" x1="504.631" y1="985.402" x2="1312.54" y2="1070.32" gradientUnits="userSpaceOnUse">
<stop stop-color="#FF1CF7"/>
<stop offset="1" stop-color="#00F0FF"/>
</linearGradient>
<linearGradient id="paint36_linear_1_146" x1="490.408" y1="966.223" x2="1282.52" y2="1091.68" gradientUnits="userSpaceOnUse">
<stop stop-color="#FF1CF7"/>
<stop offset="1" stop-color="#00F0FF"/>
</linearGradient>
<linearGradient id="paint37_linear_1_146" x1="477.149" y1="947.727" x2="1251.46" y2="1112.31" gradientUnits="userSpaceOnUse">
<stop stop-color="#FF1CF7"/>
<stop offset="1" stop-color="#00F0FF"/>
</linearGradient>
<linearGradient id="paint38_linear_1_146" x1="464.804" y1="929.96" x2="1219.42" y2="1132.16" gradientUnits="userSpaceOnUse">
<stop stop-color="#FF1CF7"/>
<stop offset="1" stop-color="#00F0FF"/>
</linearGradient>
<linearGradient id="paint39_linear_1_146" x1="453.32" y1="912.966" x2="1186.45" y2="1151.18" gradientUnits="userSpaceOnUse">
<stop stop-color="#FF1CF7"/>
<stop offset="1" stop-color="#00F0FF"/>
</linearGradient>
<linearGradient id="paint40_linear_1_146" x1="442.643" y1="896.784" x2="1152.62" y2="1169.32" gradientUnits="userSpaceOnUse">
<stop stop-color="#FF1CF7"/>
<stop offset="1" stop-color="#00F0FF"/>
</linearGradient>
<linearGradient id="paint41_linear_1_146" x1="432.716" y1="881.451" x2="1117.98" y2="1186.55" gradientUnits="userSpaceOnUse">
<stop stop-color="#FF1CF7"/>
<stop offset="1" stop-color="#00F0FF"/>
</linearGradient>
<linearGradient id="paint42_linear_1_146" x1="423.481" y1="866.999" x2="1082.59" y2="1202.83" gradientUnits="userSpaceOnUse">
<stop stop-color="#FF1CF7"/>
<stop offset="1" stop-color="#00F0FF"/>
</linearGradient>
<linearGradient id="paint43_linear_1_146" x1="414.88" y1="853.457" x2="1046.53" y2="1218.14" gradientUnits="userSpaceOnUse">
<stop stop-color="#FF1CF7"/>
<stop offset="1" stop-color="#00F0FF"/>
</linearGradient>
<linearGradient id="paint44_linear_1_146" x1="406.851" y1="840.85" x2="1009.84" y2="1232.44" gradientUnits="userSpaceOnUse">
<stop stop-color="#FF1CF7"/>
<stop offset="1" stop-color="#00F0FF"/>
</linearGradient>
<linearGradient id="paint45_linear_1_146" x1="399.334" y1="829.199" x2="972.613" y2="1245.71" gradientUnits="userSpaceOnUse">
<stop stop-color="#FF1CF7"/>
<stop offset="1" stop-color="#00F0FF"/>
</linearGradient>
<linearGradient id="paint46_linear_1_146" x1="392.266" y1="818.522" x2="934.899" y2="1257.94" gradientUnits="userSpaceOnUse">
<stop stop-color="#FF1CF7"/>
<stop offset="1" stop-color="#00F0FF"/>
</linearGradient>
<linearGradient id="paint47_linear_1_146" x1="385.586" y1="808.832" x2="896.767" y2="1269.1" gradientUnits="userSpaceOnUse">
<stop stop-color="#FF1CF7"/>
<stop offset="1" stop-color="#00F0FF"/>
</linearGradient>
<linearGradient id="paint48_linear_1_146" x1="379.231" y1="800.139" x2="858.287" y2="1279.19" gradientUnits="userSpaceOnUse">
<stop stop-color="#FF1CF7"/>
<stop offset="1" stop-color="#00F0FF"/>
</linearGradient>
<linearGradient id="paint49_linear_1_146" x1="373.138" y1="792.448" x2="819.524" y2="1288.21" gradientUnits="userSpaceOnUse">
<stop stop-color="#FF1CF7"/>
<stop offset="1" stop-color="#00F0FF"/>
</linearGradient>
<linearGradient id="paint50_linear_1_146" x1="367.246" y1="785.763" x2="780.545" y2="1296.14" gradientUnits="userSpaceOnUse">
<stop stop-color="#FF1CF7"/>
<stop offset="1" stop-color="#00F0FF"/>
</linearGradient>
<linearGradient id="paint51_linear_1_146" x1="361.494" y1="780.081" x2="741.416" y2="1303" gradientUnits="userSpaceOnUse">
<stop stop-color="#FF1CF7"/>
<stop offset="1" stop-color="#00F0FF"/>
</linearGradient>
<linearGradient id="paint52_linear_1_146" x1="355.82" y1="775.398" x2="702.203" y2="1308.78" gradientUnits="userSpaceOnUse">
<stop stop-color="#FF1CF7"/>
<stop offset="1" stop-color="#00F0FF"/>
</linearGradient>
<linearGradient id="paint53_linear_1_146" x1="350.164" y1="771.704" x2="662.97" y2="1313.5" gradientUnits="userSpaceOnUse">
<stop stop-color="#FF1CF7"/>
<stop offset="1" stop-color="#00F0FF"/>
</linearGradient>
<linearGradient id="paint54_linear_1_146" x1="344.469" y1="768.988" x2="623.781" y2="1317.17" gradientUnits="userSpaceOnUse">
<stop stop-color="#FF1CF7"/>
<stop offset="1" stop-color="#00F0FF"/>
</linearGradient>
<linearGradient id="paint55_linear_1_146" x1="338.676" y1="767.233" x2="584.696" y2="1319.8" gradientUnits="userSpaceOnUse">
<stop stop-color="#FF1CF7"/>
<stop offset="1" stop-color="#00F0FF"/>
</linearGradient>
<linearGradient id="paint56_linear_1_146" x1="332.73" y1="766.421" x2="545.775" y2="1321.42" gradientUnits="userSpaceOnUse">
<stop stop-color="#FF1CF7"/>
<stop offset="1" stop-color="#00F0FF"/>
</linearGradient>
<linearGradient id="paint57_linear_1_146" x1="326.577" y1="766.53" x2="507.077" y2="1322.05" gradientUnits="userSpaceOnUse">
<stop stop-color="#FF1CF7"/>
<stop offset="1" stop-color="#00F0FF"/>
</linearGradient>
<linearGradient id="paint58_linear_1_146" x1="320.164" y1="767.534" x2="468.658" y2="1321.72" gradientUnits="userSpaceOnUse">
<stop stop-color="#FF1CF7"/>
<stop offset="1" stop-color="#00F0FF"/>
</linearGradient>
<linearGradient id="paint59_linear_1_146" x1="313.442" y1="769.406" x2="430.572" y2="1320.46" gradientUnits="userSpaceOnUse">
<stop stop-color="#FF1CF7"/>
<stop offset="1" stop-color="#00F0FF"/>
</linearGradient>
<linearGradient id="paint60_linear_1_146" x1="306.363" y1="772.114" x2="392.869" y2="1318.29" gradientUnits="userSpaceOnUse">
<stop stop-color="#FF1CF7"/>
<stop offset="1" stop-color="#00F0FF"/>
</linearGradient>
<linearGradient id="paint61_linear_1_146" x1="298.881" y1="775.626" x2="355.6" y2="1315.27" gradientUnits="userSpaceOnUse">
<stop stop-color="#FF1CF7"/>
<stop offset="1" stop-color="#00F0FF"/>
</linearGradient>
<linearGradient id="paint62_linear_1_146" x1="290.954" y1="779.905" x2="318.809" y2="1311.41" gradientUnits="userSpaceOnUse">
<stop stop-color="#FF1CF7"/>
<stop offset="1" stop-color="#00F0FF"/>
</linearGradient>
<linearGradient id="paint63_linear_1_146" x1="282.541" y1="784.914" x2="282.541" y2="1306.78" gradientUnits="userSpaceOnUse">
<stop stop-color="#FF1CF7"/>
<stop offset="1" stop-color="#00F0FF"/>
</linearGradient>
<linearGradient id="paint64_linear_1_146" x1="273.604" y1="790.612" x2="246.835" y2="1301.4" gradientUnits="userSpaceOnUse">
<stop stop-color="#FF1CF7"/>
<stop offset="1" stop-color="#00F0FF"/>
</linearGradient>
<linearGradient id="paint65_linear_1_146" x1="264.11" y1="796.958" x2="211.729" y2="1295.33" gradientUnits="userSpaceOnUse">
<stop stop-color="#FF1CF7"/>
<stop offset="1" stop-color="#00F0FF"/>
</linearGradient>
<linearGradient id="paint66_linear_1_146" x1="254.025" y1="803.907" x2="177.257" y2="1288.6" gradientUnits="userSpaceOnUse">
<stop stop-color="#FF1CF7"/>
<stop offset="1" stop-color="#00F0FF"/>
</linearGradient>
<linearGradient id="paint67_linear_1_146" x1="243.323" y1="811.415" x2="143.45" y2="1281.28" gradientUnits="userSpaceOnUse">
<stop stop-color="#FF1CF7"/>
<stop offset="1" stop-color="#00F0FF"/>
</linearGradient>
<linearGradient id="paint68_linear_1_146" x1="231.976" y1="819.434" x2="110.335" y2="1273.41" gradientUnits="userSpaceOnUse">
<stop stop-color="#FF1CF7"/>
<stop offset="1" stop-color="#00F0FF"/>
</linearGradient>
</defs>
</svg>
